<svg width="400" height="400" viewBox="0 0 400 400" fill="none" xmlns="http://www.w3.org/2000/svg">
<g filter="url(#filter0_d_1_2)">
<path fill-rule="evenodd" clip-rule="evenodd" d="M200 130C211.046 130 220 121.046 220 110C220 98.9543 211.046 90 200 90C188.954 90 180 98.9543 180 110C180 121.046 188.954 130 200 130ZM200 126.667C209.205 126.667 216.667 119.205 216.667 110C216.667 100.795 209.205 93.3333 200 93.3333C190.795 93.3333 183.333 100.795 183.333 110C183.333 119.205 190.795 126.667 200 126.667Z" fill="white"/>
<rect x="198" y="130" width="5" height="220" fill="white"/>
<rect x="269" y="240" width="5" height="90" fill="white"/>
<rect width="5" height="90" transform="matrix(-1 0 0 1 126 239)" fill="white"/>
<rect x="292" y="215" width="5" height="90" fill="white"/>
<rect width="5" height="90" transform="matrix(-1 0 0 1 103 214)" fill="white"/>
<path fill-rule="evenodd" clip-rule="evenodd" d="M256 156C267.046 156 276 147.046 276 136C276 124.954 267.046 116 256 116C244.954 116 236 124.954 236 136C236 147.046 244.954 156 256 156ZM256 152.667C265.205 152.667 272.667 145.205 272.667 136C272.667 126.795 265.205 119.333 256 119.333C246.795 119.333 239.333 126.795 239.333 136C239.333 145.205 246.795 152.667 256 152.667Z" fill="white"/>
<rect x="233" y="200" width="5" height="140" fill="white"/>
<rect x="254.213" y="179" width="5" height="30" transform="rotate(45 254.213 179)" fill="white"/>
<rect x="253" y="153" width="5" height="30" fill="white"/>
<path fill-rule="evenodd" clip-rule="evenodd" d="M144 156C132.954 156 124 147.046 124 136C124 124.954 132.954 116 144 116C155.046 116 164 124.954 164 136C164 147.046 155.046 156 144 156ZM144 152.667C134.795 152.667 127.333 145.205 127.333 136C127.333 126.795 134.795 119.333 144 119.333C153.205 119.333 160.667 126.795 160.667 136C160.667 145.205 153.205 152.667 144 152.667Z" fill="white"/>
<rect width="5" height="140" transform="matrix(-1 0 0 1 167 200)" fill="white"/>
<rect width="5" height="30" transform="matrix(-0.707107 0.707107 0.707107 0.707107 145.787 179)" fill="white"/>
<rect width="5" height="30" transform="matrix(-1 0 0 1 147 153)" fill="white"/>
<path fill-rule="evenodd" clip-rule="evenodd" d="M295 191C306.046 191 315 182.046 315 171C315 159.954 306.046 151 295 151C283.954 151 275 159.954 275 171C275 182.046 283.954 191 295 191ZM295 187.667C304.205 187.667 311.667 180.205 311.667 171C311.667 161.795 304.205 154.333 295 154.333C285.795 154.333 278.333 161.795 278.333 171C278.333 180.205 285.795 187.667 295 187.667Z" fill="white"/>
<path fill-rule="evenodd" clip-rule="evenodd" d="M100 190C88.9543 190 80 181.046 80 170C80 158.954 88.9543 150 100 150C111.046 150 120 158.954 120 170C120 181.046 111.046 190 100 190ZM100 186.667C90.7953 186.667 83.3333 179.205 83.3333 170C83.3333 160.795 90.7953 153.333 100 153.333C109.205 153.333 116.667 160.795 116.667 170C116.667 179.205 109.205 186.667 100 186.667Z" fill="white"/>
<rect x="292" y="189" width="5" height="30" fill="white"/>
<rect width="5" height="30" transform="matrix(-1 0 0 1 103 188)" fill="white"/>
<rect x="293.749" y="215" width="5" height="35" transform="rotate(45 293.749 215)" fill="white"/>
<rect width="5" height="35" transform="matrix(-0.707107 0.707107 0.707107 0.707107 101.251 214)" fill="white"/>
<path fill-rule="evenodd" clip-rule="evenodd" d="M200 350C282.843 350 350 282.843 350 200C350 117.157 282.843 50 200 50C117.157 50 50 117.157 50 200C50 282.843 117.157 350 200 350ZM200 340C277.32 340 340 277.32 340 200C340 122.68 277.32 60 200 60C122.68 60 60 122.68 60 200C60 277.32 122.68 340 200 340Z" fill="white"/>
</g>
<defs>
<filter id="filter0_d_1_2" x="50" y="48" width="308" height="308" filterUnits="userSpaceOnUse" color-interpolation-filters="sRGB">
<feFlood flood-opacity="0" result="BackgroundImageFix"/>
<feColorMatrix in="SourceAlpha" type="matrix" values="0 0 0 0 0 0 0 0 0 0 0 0 0 0 0 0 0 0 127 0" result="hardAlpha"/>
<feOffset dx="4" dy="2"/>
<feGaussianBlur stdDeviation="2"/>
<feComposite in2="hardAlpha" operator="out"/>
<feColorMatrix type="matrix" values="0 0 0 0 0 0 0 0 0 0 0 0 0 0 0 0 0 0 0.25 0"/>
<feBlend mode="normal" in2="BackgroundImageFix" result="effect1_dropShadow_1_2"/>
<feBlend mode="normal" in="SourceGraphic" in2="effect1_dropShadow_1_2" result="shape"/>
</filter>
</defs>
</svg>
